# Blender v2.91.0 OBJ File: ''
# www.blender.org
mtllib Key1-tri.mtl
o Key1_Cube.008
v 0.017578 -0.021957 0.234549
v 0.012841 0.024484 0.234606
v 0.091645 0.032524 0.234469
v 0.096383 -0.013918 0.234412
v 0.096659 -0.014074 0.384522
v 0.091921 0.032368 0.384579
v 0.091973 0.032338 0.413135
v 0.096711 -0.014104 0.413078
v 0.013169 0.024299 0.413272
v 0.017906 -0.022143 0.413215
v 0.017631 -0.021987 0.263105
v 0.012893 0.024455 0.263162
v 0.017854 -0.022114 0.384658
v 0.091698 0.032494 0.263026
v 0.013116 0.024328 0.384715
v 0.096436 -0.013948 0.262969
v 0.141884 0.037465 0.384492
v 0.141660 0.037591 0.262939
v 0.014859 0.035557 -0.008508
v 0.015717 0.035070 0.459124
v 0.038598 0.003374 0.459049
v 0.037740 0.003861 -0.008583
v -0.017160 -0.035771 -0.008523
v -0.016301 -0.036257 0.459109
v -0.039182 -0.004561 0.459184
v -0.040041 -0.004074 -0.008448
v -0.023173 0.031103 0.459192
v -0.024032 0.031589 -0.008440
v 0.022589 -0.032290 0.459041
v 0.021730 -0.031803 -0.008590
v 0.020344 -0.030040 -0.112989
v -0.016516 -0.033800 -0.112925
v -0.016494 -0.033519 -0.158377
v 0.020111 -0.029785 -0.158440
v -0.021447 -0.045292 -0.014173
v 0.027832 -0.040265 -0.014258
v 0.035518 0.003762 -0.112982
v 0.013831 0.033804 -0.112911
v 0.018114 0.043334 -0.111123
v 0.045916 0.004821 -0.111214
v -0.024121 0.031640 -0.057134
v 0.014769 0.035607 -0.057201
v 0.019035 0.045141 -0.063256
v -0.030245 0.040114 -0.063170
v 0.037650 0.003911 -0.057276
v 0.021641 -0.031753 -0.057284
v 0.027742 -0.040214 -0.063360
v 0.048028 0.004977 -0.063351
v -0.050441 -0.005128 -0.014078
v -0.024098 0.031627 -0.044358
v -0.040107 -0.004037 -0.044365
v -0.050488 -0.005102 -0.039727
v -0.030202 0.040089 -0.039717
v 0.021305 -0.031346 -0.096269
v -0.017136 -0.035268 -0.096202
v -0.021014 -0.043896 -0.097990
v 0.026839 -0.039014 -0.098073
v 0.037674 0.003898 -0.044500
v 0.021664 -0.031766 -0.044508
v -0.030155 0.040063 -0.014068
v -0.017226 -0.035733 -0.044440
v -0.017249 -0.035720 -0.057216
v -0.040130 -0.004024 -0.057141
v -0.050531 -0.005077 -0.063180
v 0.019125 0.045090 -0.014154
v -0.023029 0.030043 -0.112847
v -0.038203 -0.003759 -0.112854
v -0.048594 -0.004821 -0.111051
v -0.029142 0.038514 -0.111041
v 0.014793 0.035594 -0.044425
v -0.021494 -0.045265 -0.039822
v 0.019078 0.045117 -0.039802
v 0.048118 0.004926 -0.014249
v 0.048071 0.004953 -0.039897
v 0.027785 -0.040238 -0.039907
v 0.037130 0.003906 -0.096261
v -0.021537 -0.045241 -0.063275
v -0.039754 -0.003937 -0.096128
v -0.023929 0.031315 -0.096121
v 0.014513 0.035237 -0.096187
v 0.018384 0.043869 -0.097971
v -0.029469 0.038987 -0.097888
v 0.026463 -0.038514 -0.111224
v -0.020792 -0.043335 -0.111142
v -0.049168 -0.004896 -0.097898
v 0.013643 0.033617 -0.158362
v -0.022962 0.029883 -0.158299
v 0.035179 0.003783 -0.158433
v -0.038031 -0.003685 -0.158306
v 0.022979 0.001764 0.472695
v 0.013410 -0.019554 0.472690
v -0.009836 -0.021925 0.472730
v -0.023513 -0.002979 0.472775
v -0.013944 0.018338 0.472780
v 0.009302 0.020710 0.472739
v 0.146398 -0.008851 0.262882
v 0.146621 -0.008977 0.384435
v -0.145536 0.021136 -0.271714
v -0.132605 0.022361 -0.194542
v -0.096282 0.026093 -0.216424
v -0.105558 0.025215 -0.271783
v -0.004322 0.035692 -0.393648
v -0.048029 0.031233 -0.393572
v -0.049373 0.031054 -0.359174
v -0.004237 0.035644 -0.347225
v 0.124691 0.048609 -0.194987
v 0.137338 0.049994 -0.272204
v 0.097360 0.045916 -0.272135
v 0.088288 0.044922 -0.216744
v -0.047582 0.030980 -0.150195
v -0.049053 0.030872 -0.184588
v -0.132888 0.022521 -0.348931
v -0.096486 0.026208 -0.327174
v 0.124407 0.048770 -0.349376
v 0.088085 0.045038 -0.327494
v -0.003875 0.035439 -0.150270
v 0.039831 0.039897 -0.150346
v 0.041176 0.040077 -0.184744
v -0.003967 0.035491 -0.200394
v 0.039384 0.040151 -0.393723
v 0.040855 0.040259 -0.359330
v -0.138900 -0.043906 -0.271794
v -0.098923 -0.039827 -0.271863
v -0.089647 -0.038949 -0.216504
v -0.125970 -0.042681 -0.194622
v 0.002313 -0.029350 -0.393728
v 0.002398 -0.029398 -0.347305
v -0.042738 -0.033988 -0.359254
v -0.041393 -0.033809 -0.393652
v 0.131326 -0.016433 -0.195067
v 0.094923 -0.020120 -0.216824
v 0.103996 -0.019126 -0.272214
v 0.143973 -0.015048 -0.272284
v -0.042417 -0.034170 -0.184668
v -0.040946 -0.034062 -0.150274
v -0.089850 -0.038834 -0.327254
v -0.126253 -0.042521 -0.349011
v 0.094720 -0.020004 -0.327574
v 0.131043 -0.016272 -0.349456
v 0.002760 -0.029603 -0.150350
v 0.002668 -0.029551 -0.200474
v 0.047811 -0.024965 -0.184824
v 0.046466 -0.025145 -0.150426
v 0.047490 -0.024783 -0.359410
v 0.046019 -0.024891 -0.393803
v 0.046538 0.004868 -0.098063
vn -0.0018 0.0010 -1.0000
vn 0.9948 0.1015 -0.0017
vn 0.0018 -0.0010 1.0000
vn -0.9948 -0.1015 0.0017
vn 0.1015 -0.9948 -0.0012
vn -0.1015 0.9948 0.0012
vn 0.8108 0.5853 -0.0009
vn -0.8108 -0.5853 0.0009
vn -0.9123 0.4095 0.0021
vn 0.9123 -0.4095 -0.0021
vn 0.1015 -0.9948 -0.0061
vn 0.0553 -0.5278 0.8475
vn 0.0553 -0.5278 0.8476
vn 0.1552 0.1144 -0.9812
vn -0.0549 0.5527 0.8316
vn 0.5091 -0.2287 0.8297
vn 0.5092 -0.2287 0.8297
vn 0.5092 -0.2288 0.8297
vn -0.4279 -0.3109 0.8487
vn -0.4279 -0.3109 0.8486
vn -0.4167 0.1872 -0.8896
vn -0.4167 0.1872 -0.8895
vn 0.0234 -0.2129 0.9768
vn -0.4817 0.2160 0.8493
vn -0.5061 0.2270 0.8321
vn -0.0522 0.5261 0.8488
vn -0.1784 0.0803 -0.9807
vn -0.3705 -0.2653 -0.8901
vn 0.8765 -0.3934 -0.2774
vn 0.8765 -0.3934 -0.2775
vn 0.0971 -0.9561 -0.2766
vn -0.7799 -0.5624 -0.2746
vn -0.8775 0.3940 -0.2734
vn -0.0981 0.9566 -0.2742
vn 0.7789 0.5630 -0.2763
vn 0.4135 -0.1854 -0.8914
vn -0.0478 0.4536 -0.8899
vn -0.0478 0.4535 -0.8900
vn 0.4848 -0.2178 0.8471
vn 0.0580 -0.5544 0.8302
vn -0.0198 0.2109 0.9773
vn -0.0198 0.2108 0.9773
vn 0.0178 -0.1915 -0.9813
vn 0.4527 0.3248 0.8304
vn 0.0445 -0.4517 -0.8910
vn 0.0445 -0.4517 -0.8911
vn 0.0445 -0.4516 -0.8911
vn 0.3673 0.2672 -0.8909
vn 0.3673 0.2673 -0.8909
vn -0.1709 -0.1257 0.9772
vn -0.4496 -0.3266 0.8314
vn 0.4311 0.3092 0.8477
vn -0.1015 0.9948 -0.0037
vn 0.9123 -0.4095 -0.0070
vn -0.8108 -0.5853 -0.0040
vn 0.8108 0.5853 -0.0058
vn -0.9123 0.4095 -0.0028
vn 0.6464 -0.2903 0.7056
vn 0.0731 -0.7042 0.7062
vn 0.0730 -0.7042 0.7063
vn -0.5720 -0.4146 0.7077
vn -0.6438 0.2888 0.7086
vn -0.0704 0.7027 0.7080
vn 0.5746 0.4132 0.7065
vn 0.0018 -0.0011 1.0000
vn -0.3277 -0.0323 -0.9442
vn -0.9810 -0.1003 0.1660
vn -0.4614 -0.0460 -0.8860
vn -0.5571 -0.0558 -0.8286
vn -0.5540 -0.0575 0.8305
vn -0.9816 -0.0999 -0.1626
vn -0.9816 -0.1000 -0.1626
vn 0.2568 0.0250 0.9661
vn 0.5571 0.0558 0.8286
vn -0.4581 -0.0478 0.8876
vn 0.9816 0.0999 0.1626
vn 0.9810 0.1003 -0.1660
vn 0.4614 0.0460 0.8860
vn 0.4581 0.0478 -0.8876
vn 0.5540 0.0575 -0.8305
vn 0.3243 0.0342 -0.9454
vn -0.2533 -0.0270 0.9670
vn -0.1015 0.9941 -0.0383
vn -0.1015 0.9941 -0.0384
vn 0.1013 -0.9940 -0.0407
vn -0.9117 0.4092 -0.0374
vn -0.8102 -0.5848 -0.0387
vn -0.8103 -0.5848 -0.0386
vn 0.9115 -0.4092 -0.0416
vn 0.8101 0.5849 -0.0404
vn 0.1748 -0.0783 -0.9815
vn 0.1748 -0.0782 -0.9815
vn -0.1926 0.0862 0.9775
vn -0.1925 0.0862 0.9775
vn -0.1587 -0.1123 -0.9809
vn 0.1745 0.1236 0.9769
vn 0.1961 -0.0882 0.9766
vn -0.0215 0.1937 -0.9808
vn -0.0215 0.1936 -0.9808
vn 0.0553 -0.5279 0.8475
vn -0.3705 -0.2654 -0.8901
vn -0.0981 0.9566 -0.2743
vn 0.7790 0.5630 -0.2763
vn -0.0705 0.7027 0.7080
vn 0.0019 -0.0010 1.0000
vn 0.9816 0.1000 0.1626
vn -0.9117 0.4092 -0.0375
vn 0.1749 -0.0783 -0.9815
vn -0.1924 0.0862 0.9775
usemtl Brown
s 1
f 2//1 4//1 1//1
f 5//2 7//2 8//2
f 8//3 9//3 10//3
f 11//4 2//4 1//4
f 8//5 13//5 5//5
f 3//6 12//6 14//6
f 14//6 15//6 6//6
f 13//5 16//5 5//5
f 15//4 11//4 13//4
f 14//6 17//6 18//6
f 4//2 14//2 16//2
f 4//5 11//5 1//5
f 10//4 15//4 13//4
f 6//6 9//6 7//6
f 19//7 21//7 22//7
f 23//8 25//8 26//8
f 25//9 28//9 26//9
f 28//6 20//6 19//6
f 21//10 30//10 22//10
f 29//5 23//5 30//5
f 31//11 33//11 34//11
f 23//12 36//12 30//13
f 37//14 39//14 40//14
f 41//15 43//15 44//15
f 46//16 48//17 45//18
f 26//19 35//20 23//20
f 51//21 53//22 50//22
f 55//23 57//23 54//23
f 45//10 59//10 46//10
f 28//24 49//24 26//24
f 59//5 62//5 46//5
f 41//25 64//25 63//25
f 61//8 63//8 62//8
f 28//26 65//26 60//26
f 63//9 50//9 41//9
f 66//27 68//27 69//27
f 50//6 42//6 41//6
f 51//28 71//28 52//28
f 70//7 45//7 42//7
f 65//7 74//7 72//7
f 53//6 65//6 72//6
f 49//9 53//9 52//9
f 35//8 52//8 71//8
f 75//5 35//5 71//5
f 73//10 75//10 74//10
f 48//29 54//30 76//29
f 47//31 55//31 54//31
f 55//32 64//32 78//32
f 78//33 44//33 79//33
f 79//34 43//34 80//34
f 43//35 76//35 80//35
f 58//36 75//36 59//36
f 50//37 72//37 70//38
f 30//39 73//39 22//39
f 62//40 47//40 46//40
f 80//41 82//42 79//42
f 32//43 83//43 84//43
f 42//44 48//44 43//44
f 59//45 71//46 61//47
f 70//48 74//48 58//49
f 78//50 56//50 55//50
f 63//51 77//51 62//51
f 19//52 73//52 65//52
f 38//53 87//53 66//53
f 37//54 34//54 88//54
f 32//55 89//55 33//55
f 37//56 86//56 38//56
f 66//57 89//57 67//57
f 33//1 88//1 34//1
f 89//1 86//1 33//1
f 21//58 91//58 29//58
f 24//59 91//59 92//60
f 25//61 92//61 93//61
f 25//62 94//62 27//62
f 27//63 95//63 20//63
f 20//64 90//64 21//64
f 90//3 94//3 92//65
f 16//1 18//1 96//1
f 6//3 97//3 17//3
f 16//5 97//5 5//5
f 97//2 18//2 17//2
f 98//6 100//6 101//6
f 102//6 104//6 105//6
f 107//6 109//6 106//6
f 110//6 100//6 99//6
f 103//6 113//6 104//6
f 107//6 115//6 108//6
f 116//6 118//6 119//6
f 98//6 113//6 112//6
f 120//6 115//6 114//6
f 117//6 109//6 118//6
f 122//5 124//5 125//5
f 126//5 128//5 129//5
f 131//5 133//5 130//5
f 124//5 135//5 125//5
f 129//5 136//5 137//5
f 133//5 138//5 139//5
f 140//5 142//5 143//5
f 136//5 122//5 137//5
f 138//5 145//5 139//5
f 143//5 131//5 130//5
f 126//1 103//1 102//1
f 141//66 111//66 119//66
f 138//67 108//67 115//67
f 103//68 137//68 112//68
f 109//69 142//69 118//69
f 121//70 138//70 115//70
f 112//71 122//71 98//72
f 132//71 109//71 108//72
f 105//73 144//73 121//73
f 98//67 125//67 99//67
f 113//74 128//74 104//74
f 125//75 110//75 99//75
f 123//76 113//76 101//76
f 140//3 117//3 116//3
f 107//77 139//77 114//77
f 100//77 123//77 101//77
f 117//78 130//78 106//78
f 114//79 145//79 120//79
f 111//80 124//80 100//80
f 130//76 107//76 106//76
f 110//3 140//3 116//3
f 142//81 119//81 118//81
f 134//5 140//5 135//5
f 116//6 111//6 110//6
f 104//82 127//82 105//82
f 145//1 102//1 120//1
f 144//5 126//5 145//5
f 102//6 121//6 120//6
f 39//83 82//83 81//84
f 83//85 56//85 84//85
f 68//86 82//86 69//86
f 68//87 56//88 85//87
f 40//89 57//89 83//89
f 39//90 146//90 40//90
f 37//91 83//92 31//92
f 78//93 82//94 85//93
f 32//95 68//95 67//95
f 76//96 81//96 80//96
f 76//97 57//97 146//97
f 38//98 69//99 39//98
f 2//1 3//1 4//1
f 5//2 6//2 7//2
f 8//3 7//3 9//3
f 11//4 12//4 2//4
f 8//5 10//5 13//5
f 3//6 2//6 12//6
f 14//6 12//6 15//6
f 13//5 11//5 16//5
f 15//4 12//4 11//4
f 14//6 6//6 17//6
f 4//2 3//2 14//2
f 4//5 16//5 11//5
f 10//4 9//4 15//4
f 6//6 15//6 9//6
f 19//7 20//7 21//7
f 23//8 24//8 25//8
f 25//9 27//9 28//9
f 28//6 27//6 20//6
f 21//10 29//10 30//10
f 29//5 24//5 23//5
f 31//11 32//11 33//11
f 23//12 35//100 36//12
f 37//14 38//14 39//14
f 41//15 42//15 43//15
f 46//16 47//16 48//17
f 26//19 49//19 35//20
f 51//21 52//21 53//22
f 55//23 56//23 57//23
f 45//10 58//10 59//10
f 28//24 60//24 49//24
f 59//5 61//5 62//5
f 41//25 44//25 64//25
f 61//8 51//8 63//8
f 28//26 19//26 65//26
f 63//9 51//9 50//9
f 66//27 67//27 68//27
f 50//6 70//6 42//6
f 51//28 61//101 71//28
f 70//7 58//7 45//7
f 65//7 73//7 74//7
f 53//6 60//6 65//6
f 49//9 60//9 53//9
f 35//8 49//8 52//8
f 75//5 36//5 35//5
f 73//10 36//10 75//10
f 48//29 47//30 54//30
f 47//31 77//31 55//31
f 55//32 77//32 64//32
f 78//33 64//33 44//33
f 79//34 44//102 43//34
f 43//35 48//103 76//35
f 58//36 74//36 75//36
f 50//37 53//37 72//37
f 30//39 36//39 73//39
f 62//40 77//40 47//40
f 80//41 81//41 82//42
f 32//43 31//43 83//43
f 42//44 45//44 48//44
f 59//45 75//45 71//46
f 70//48 72//48 74//48
f 78//50 85//50 56//50
f 63//51 64//51 77//51
f 19//52 22//52 73//52
f 38//53 86//53 87//53
f 37//54 31//54 34//54
f 32//55 67//55 89//55
f 37//56 88//56 86//56
f 66//57 87//57 89//57
f 33//1 86//1 88//1
f 89//1 87//1 86//1
f 21//58 90//58 91//58
f 24//59 29//59 91//59
f 25//61 24//61 92//61
f 25//62 93//62 94//62
f 27//63 94//104 95//63
f 20//64 95//64 90//64
f 92//65 91//65 90//3
f 90//3 95//105 94//3
f 94//3 93//65 92//65
f 16//1 14//1 18//1
f 6//3 5//3 97//3
f 16//5 96//5 97//5
f 97//2 96//2 18//2
f 98//6 99//6 100//6
f 102//6 103//6 104//6
f 107//6 108//6 109//6
f 110//6 111//6 100//6
f 103//6 112//6 113//6
f 107//6 114//6 115//6
f 116//6 117//6 118//6
f 98//6 101//6 113//6
f 120//6 121//6 115//6
f 117//6 106//6 109//6
f 122//5 123//5 124//5
f 126//5 127//5 128//5
f 131//5 132//5 133//5
f 124//5 134//5 135//5
f 129//5 128//5 136//5
f 133//5 132//5 138//5
f 140//5 141//5 142//5
f 136//5 123//5 122//5
f 138//5 144//5 145//5
f 143//5 142//5 131//5
f 126//1 129//1 103//1
f 141//66 134//66 111//66
f 138//67 132//67 108//67
f 103//68 129//68 137//68
f 109//69 131//69 142//69
f 121//70 144//70 138//70
f 112//71 137//71 122//71
f 132//71 131//71 109//71
f 105//73 127//73 144//73
f 98//67 122//67 125//67
f 113//74 136//74 128//74
f 125//75 135//75 110//75
f 123//76 136//106 113//76
f 140//3 143//3 117//3
f 107//77 133//77 139//77
f 100//77 124//77 123//77
f 117//78 143//78 130//78
f 114//79 139//79 145//79
f 111//80 134//80 124//80
f 130//76 133//76 107//76
f 110//3 135//3 140//3
f 142//81 141//81 119//81
f 134//5 141//5 140//5
f 116//6 119//6 111//6
f 104//82 128//82 127//82
f 145//1 126//1 102//1
f 144//5 127//5 126//5
f 102//6 105//6 121//6
f 39//83 69//83 82//83
f 83//85 57//85 56//85
f 68//86 85//107 82//86
f 68//87 84//88 56//88
f 40//89 146//89 57//89
f 39//90 81//90 146//90
f 37//91 40//108 83//92
f 78//93 79//109 82//94
f 32//95 84//95 68//95
f 76//96 146//96 81//96
f 76//97 54//97 57//97
f 38//98 66//99 69//99
