# Blender v2.91.0 OBJ File: ''
# www.blender.org
mtllib potion-tri.mtl
o Potion_Cylinder.012
v -0.020806 1.041579 0.012188
v -0.018282 1.041579 0.018282
v -0.018282 1.067143 0.018282
v -0.020806 1.067143 0.012188
v 0.018282 1.067143 -0.018282
v 0.000000 1.067143 -0.025855
v 0.000000 1.067143 -0.053297
v 0.037686 1.067143 -0.037686
v 0.012188 1.041579 0.020806
v 0.018282 1.041579 0.018282
v 0.018282 1.067143 0.018282
v 0.012188 1.067143 0.020806
v 0.020806 1.041579 -0.012188
v 0.018282 1.041579 -0.018282
v 0.020806 1.067143 -0.012188
v -0.018282 1.041579 -0.018282
v -0.025855 1.041579 0.000000
v -0.025855 1.067143 0.000000
v -0.018282 1.067143 -0.018282
v 0.000000 1.041579 0.025855
v 0.000000 1.067143 0.025855
v 0.025855 1.041579 0.000000
v 0.025855 1.067143 0.000000
v 0.000000 1.041579 -0.025855
v -0.012188 1.041579 -0.020806
v -0.012188 1.067143 -0.020806
v -0.037686 1.067143 -0.037686
v -0.053297 1.067143 0.000000
v -0.053297 1.160324 0.000000
v -0.037686 1.160324 -0.037686
v -0.025124 1.067143 -0.042890
v -0.037686 1.067143 0.037686
v -0.042890 1.067143 0.025124
v 0.037686 1.067143 0.037686
v 0.025124 1.067143 0.042890
v 0.042890 1.067143 -0.025124
v 0.000000 1.067143 0.053297
v 0.053297 1.067143 0.000000
v 0.037686 1.160324 -0.037686
v 0.000000 1.160324 -0.053297
v -0.012562 1.160324 -0.048093
v -0.025124 1.160324 -0.042890
v -0.048093 1.160324 0.012562
v -0.042890 1.160324 0.025124
v -0.037686 1.160324 0.037686
v 0.000000 1.160324 0.053297
v 0.012562 1.160324 0.048093
v 0.025124 1.160324 0.042890
v 0.037686 1.160324 0.037686
v 0.053297 1.160324 0.000000
v 0.048093 1.160324 -0.012562
v 0.042890 1.160324 -0.025124
v 0.048093 1.067143 -0.012562
v 0.023330 1.067143 -0.006094
v 0.023330 1.041579 -0.006094
v 0.012562 1.067143 0.048093
v 0.006094 1.067143 0.023330
v 0.006094 1.041579 0.023330
v -0.048093 1.067143 0.012562
v -0.023330 1.067143 0.006094
v -0.023330 1.041579 0.006094
v -0.012562 1.067143 -0.048093
v -0.006094 1.067143 -0.023330
v -0.006094 1.041579 -0.023330
v 0.000000 0.541610 -0.064768
v 0.000000 1.055659 -0.064768
v 0.045798 1.055659 -0.045798
v 0.045798 0.541610 -0.045798
v 0.058444 0.541610 -0.015266
v 0.058444 1.055659 -0.015266
v 0.064767 1.055659 0.000000
v 0.064767 0.541610 0.000000
v 0.045798 1.055659 0.045798
v 0.045798 0.541610 0.045798
v 0.015266 0.541610 0.058444
v 0.015266 1.055659 0.058444
v 0.000000 1.055659 0.064768
v 0.000000 0.541610 0.064768
v -0.045798 1.055659 0.045798
v -0.045798 0.541610 0.045798
v -0.058444 0.541610 0.015266
v -0.058444 1.055659 0.015266
v -0.064767 1.055659 0.000000
v -0.064767 0.541610 0.000000
v 0.030532 1.055659 0.052121
v 0.027920 1.055659 0.027920
v 0.018613 1.055659 0.031775
v -0.015266 0.541610 -0.058444
v -0.015266 1.055659 -0.058444
v -0.045798 1.055659 -0.045798
v -0.045798 0.541610 -0.045798
v 0.112293 0.415745 0.112293
v 0.158806 0.415745 0.000000
v -0.143301 0.415745 0.037431
v -0.158806 0.415745 0.000000
v -0.255984 0.269161 0.000000
v -0.230992 0.269161 0.060336
v 0.000000 0.415745 0.158806
v 0.037431 0.415745 0.143301
v -0.112293 0.415745 -0.112293
v 0.143301 0.415745 -0.037431
v -0.112293 0.415745 0.112293
v 0.000000 0.415745 -0.158806
v -0.037431 0.415745 -0.143301
v 0.112293 0.415745 -0.112293
v 0.000000 0.269161 -0.255984
v 0.181008 0.269161 -0.181008
v 0.181560 0.101328 -0.181560
v 0.000000 0.101328 -0.256765
v 0.000000 0.269161 0.255984
v 0.060336 0.269161 0.230992
v 0.255984 0.269161 0.000000
v 0.230992 0.269161 -0.060336
v -0.181008 0.269161 -0.181008
v -0.181008 0.269161 0.181008
v 0.181008 0.269161 0.181008
v -0.060336 0.269161 -0.230992
v -0.060520 0.101328 -0.231697
v -0.256765 0.101328 0.000000
v -0.231697 0.101328 0.060520
v 0.000000 0.101328 0.256765
v 0.060520 0.101328 0.231697
v 0.256765 0.101328 0.000000
v 0.231697 0.101328 -0.060520
v -0.181561 0.101328 -0.181560
v -0.181561 0.101328 0.181560
v 0.181560 0.101328 0.181560
v -0.027920 1.055659 0.027920
v 0.000000 1.055659 0.039485
v 0.000000 1.041579 0.039485
v -0.027920 1.041579 0.027920
v -0.039485 1.055659 0.000000
v -0.027920 1.055659 -0.027920
v 0.052121 1.055659 -0.030532
v 0.027920 1.055659 -0.027920
v 0.031775 1.055659 -0.018613
v -0.030532 1.055659 -0.052121
v -0.018613 1.055659 -0.031775
v 0.000000 1.055659 -0.039485
v 0.039485 1.055659 0.000000
v -0.052121 1.055659 0.030532
v -0.031775 1.055659 0.018613
v -0.027920 1.041579 -0.027920
v -0.039485 1.041579 0.000000
v 0.039485 1.041579 0.000000
v 0.027920 1.041579 0.027920
v 0.000000 1.041579 -0.039485
v 0.027920 1.041579 -0.027920
v -0.018613 1.041579 -0.031775
v -0.031775 1.041579 0.018613
v 0.018613 1.041579 0.031775
v 0.031775 1.041579 -0.018613
v 0.035630 1.041579 -0.009307
v 0.035630 1.055659 -0.009307
v 0.206000 0.269161 -0.120672
v 0.206629 0.101328 -0.121040
v 0.127797 0.415745 -0.074862
v 0.052121 0.541610 -0.030532
v 0.009307 1.041579 0.035630
v 0.009307 1.055659 0.035630
v 0.120672 0.269161 0.206000
v 0.121040 0.101328 0.206629
v 0.074862 0.415745 0.127797
v 0.030532 0.541610 0.052121
v -0.035630 1.041579 0.009307
v -0.035630 1.055659 0.009307
v -0.206000 0.269161 0.120672
v -0.206629 0.101328 0.121040
v -0.052121 0.541610 0.030532
v -0.127797 0.415745 0.074862
v -0.009307 1.041579 -0.035630
v -0.009307 1.055659 -0.035630
v -0.120672 0.269161 -0.206000
v -0.121040 0.101328 -0.206629
v -0.074862 0.415745 -0.127797
v -0.030532 0.541610 -0.052121
v -0.134826 0.284076 -0.230162
v -0.135237 0.065708 -0.230864
v 0.134826 0.284076 0.230162
v 0.135237 0.065708 0.230864
v -0.258085 0.284076 0.067413
v -0.160109 0.447852 0.041821
v 0.258085 0.284076 -0.067413
v 0.160109 0.447852 -0.041821
v 0.202855 0.065708 0.202855
v -0.142786 0.447852 0.083642
v -0.230162 0.284076 0.134826
v 0.142786 0.447852 -0.083642
v 0.230162 0.284076 -0.134826
v 0.000000 0.065708 -0.286881
v -0.067619 0.065708 -0.258872
v 0.258872 0.065708 -0.067618
v -0.202856 0.065708 -0.202855
v -0.286881 0.065708 0.000000
v 0.230864 0.065708 -0.135237
v -0.258873 0.065708 0.067618
v 0.041821 0.447852 0.160109
v 0.083642 0.447852 0.142786
v -0.202856 0.065708 0.202855
v 0.000000 0.065708 0.286881
v -0.230864 0.065708 0.135237
v 0.067618 0.065708 0.258872
v -0.041821 0.447852 -0.160109
v -0.083642 0.447852 -0.142786
v 0.286881 0.065708 0.000000
v 0.202855 0.065708 -0.202855
v -0.130470 -0.005681 -0.130470
v -0.184513 -0.005681 -0.000000
v 0.000000 -0.005681 -0.184513
v 0.130470 -0.005681 -0.130470
v 0.148484 -0.005681 -0.086980
v 0.166498 -0.005681 -0.043490
v 0.184513 -0.005681 -0.000000
v 0.130470 -0.005681 0.130470
v 0.086980 -0.005681 0.148484
v 0.043490 -0.005681 0.166498
v 0.000000 -0.005681 0.184513
v -0.130470 -0.005681 0.130470
v -0.148484 -0.005681 0.086980
v -0.166499 -0.005681 0.043490
v -0.086980 -0.005681 -0.148484
v -0.043490 -0.005681 -0.166498
v 0.067413 0.284076 0.258085
v -0.067413 0.284076 -0.258085
vn -0.9239 -0.0000 0.3827
vn 0.0000 -1.0000 0.0000
vn 0.3827 -0.0000 0.9239
vn 0.9239 0.0000 -0.3827
vn -0.9239 0.0000 -0.3827
vn -0.3827 -0.0000 0.9239
vn 0.9239 -0.0000 0.3827
vn 0.3827 0.0000 -0.9239
vn -0.3827 0.0000 -0.9239
vn 0.0000 1.0000 0.0000
vn 0.9238 0.0000 -0.3828
vn 0.3828 -0.0000 0.9238
vn -0.9238 -0.0000 0.3828
vn -0.3828 0.0000 -0.9238
vn 0.7603 0.5681 0.3149
vn -0.7878 0.5223 0.3263
vn -0.7603 0.5681 0.3149
vn 0.3150 0.5681 0.7603
vn 0.3149 0.5681 0.7603
vn -0.7603 0.5681 -0.3149
vn 0.7603 0.5681 -0.3149
vn -0.3149 0.5681 0.7603
vn -0.3150 0.5681 -0.7603
vn -0.3149 0.5681 -0.7603
vn 0.3149 0.5681 -0.7603
vn 0.3827 0.0043 -0.9239
vn 0.3263 0.5223 0.7878
vn 0.7878 0.5223 -0.3263
vn -0.7878 0.5223 -0.3263
vn -0.3263 0.5223 0.7878
vn 0.7878 0.5223 0.3263
vn 0.3263 0.5223 -0.7878
vn -0.3263 0.5223 -0.7878
vn -0.3827 0.0043 -0.9239
vn -0.9239 0.0043 0.3827
vn 0.3827 0.0043 0.9239
vn 0.9239 0.0043 -0.3827
vn -0.9239 0.0043 -0.3827
vn -0.3827 0.0043 0.9239
vn 0.9239 0.0043 0.3827
vn -0.7603 0.5681 0.3150
vn 0.7603 0.5681 -0.3150
vn 0.7879 0.5223 -0.3263
vn 0.3263 0.5223 0.7879
vn -0.3263 0.5223 -0.7879
vn -0.8628 -0.0000 0.5055
vn -0.8629 -0.0000 0.5055
vn 0.8628 -0.0000 -0.5055
vn 0.8629 -0.0000 -0.5055
vn -0.2527 -0.0000 -0.9675
vn 0.2527 -0.0000 0.9675
vn 0.3016 0.6156 0.7281
vn 0.5054 0.0000 0.8629
vn 0.5055 -0.0000 0.8629
vn -0.5054 0.0000 -0.8629
vn -0.5055 -0.0000 -0.8629
vn -0.3016 0.6156 -0.7281
vn -0.7281 0.6156 -0.3016
vn -0.5055 -0.0000 -0.8628
vn -0.7281 0.6156 0.3016
vn -0.3373 0.4724 -0.8143
vn -0.3016 0.6156 0.7281
vn 0.5055 -0.0000 0.8628
vn 0.3373 0.4724 0.8143
vn 0.7281 0.6156 0.3016
vn 0.7281 0.6156 -0.3016
vn 0.3016 0.6156 -0.7281
vn -0.8143 0.4724 0.3373
vn -0.5566 -0.7981 -0.2306
vn -0.2306 -0.7981 0.5566
vn 0.5566 -0.7981 0.2306
vn 0.2306 -0.7981 -0.5566
vn -0.2306 -0.7981 -0.5566
vn -0.5566 -0.7981 0.2306
vn 0.2306 -0.7981 0.5566
vn 0.5566 -0.7981 -0.2306
vn 0.9239 0.0037 -0.3827
vn 0.3827 0.0037 0.9239
vn -0.9239 0.0037 0.3827
vn -0.3827 0.0037 -0.9239
vn -0.9675 0.0000 0.2527
vn 0.9675 -0.0000 -0.2527
vn 0.8143 0.4724 -0.3373
vn 0.8629 0.0000 -0.5054
vn -0.8629 0.0000 0.5054
usemtl Cork
s 1
f 2//1 4//1 1//1
f 6//2 8//2 5//2
f 10//3 12//3 9//3
f 14//4 15//4 13//4
f 17//5 19//5 16//5
f 20//6 3//6 2//6
f 22//7 11//7 10//7
f 24//8 5//8 14//8
f 16//9 26//9 25//9
f 28//5 30//5 27//5
f 19//2 31//2 26//2
f 3//2 33//2 4//2
f 11//2 35//2 12//2
f 5//2 36//2 15//2
f 18//2 27//2 19//2
f 21//2 32//2 3//2
f 23//2 34//2 11//2
f 41//10 43//10 47//10
f 37//6 45//6 32//6
f 38//7 49//7 34//7
f 7//8 39//8 8//8
f 27//9 42//9 31//9
f 32//1 44//1 33//1
f 34//3 48//3 35//3
f 8//4 52//4 36//4
f 53//4 50//4 38//4
f 36//4 51//4 53//4
f 23//2 53//2 38//2
f 15//2 53//2 54//2
f 55//4 23//11 22//11
f 13//4 54//4 55//4
f 56//3 46//3 37//3
f 35//3 47//3 56//3
f 21//2 56//2 37//2
f 12//2 56//2 57//2
f 58//3 21//12 20//12
f 9//3 57//3 58//3
f 59//1 29//1 28//1
f 33//1 43//1 59//1
f 18//2 59//2 28//2
f 4//2 59//2 60//2
f 61//1 18//13 17//13
f 1//1 60//1 61//1
f 62//9 40//9 7//9
f 31//9 41//9 62//9
f 6//2 62//2 7//2
f 26//2 62//2 63//2
f 64//9 6//14 24//14
f 25//9 63//9 64//9
f 2//1 3//1 4//1
f 6//2 7//2 8//2
f 10//3 11//3 12//3
f 14//4 5//4 15//4
f 17//5 18//5 19//5
f 20//6 21//6 3//6
f 22//7 23//7 11//7
f 24//8 6//8 5//8
f 16//9 19//9 26//9
f 28//5 29//5 30//5
f 19//2 27//2 31//2
f 3//2 32//2 33//2
f 11//2 34//2 35//2
f 5//2 8//2 36//2
f 18//2 28//2 27//2
f 21//2 37//2 32//2
f 23//2 38//2 34//2
f 52//10 39//10 41//10
f 39//10 40//10 41//10
f 41//10 42//10 43//10
f 42//10 30//10 29//10
f 49//10 50//10 51//10
f 51//10 52//10 41//10
f 42//10 29//10 43//10
f 43//10 44//10 47//10
f 44//10 45//10 47//10
f 49//10 51//10 48//10
f 51//10 41//10 47//10
f 47//10 48//10 51//10
f 45//10 46//10 47//10
f 37//6 46//6 45//6
f 38//7 50//7 49//7
f 7//8 40//8 39//8
f 27//9 30//9 42//9
f 32//1 45//1 44//1
f 34//3 49//3 48//3
f 8//4 39//4 52//4
f 53//4 51//4 50//4
f 36//4 52//4 51//4
f 23//2 54//2 53//2
f 15//2 36//2 53//2
f 55//4 54//4 23//11
f 13//4 15//4 54//4
f 56//3 47//3 46//3
f 35//3 48//3 47//3
f 21//2 57//2 56//2
f 12//2 35//2 56//2
f 58//3 57//3 21//12
f 9//3 12//3 57//3
f 59//1 43//1 29//1
f 33//1 44//1 43//1
f 18//2 60//2 59//2
f 4//2 33//2 59//2
f 61//1 60//1 18//13
f 1//1 4//1 60//1
f 62//9 41//9 40//9
f 31//9 42//9 41//9
f 6//2 63//2 62//2
f 26//2 31//2 62//2
f 64//9 63//9 6//14
f 25//9 26//9 63//9
usemtl Blue
f 66//8 68//8 65//8
f 70//4 72//4 69//4
f 71//7 74//7 72//7
f 76//3 78//3 75//3
f 77//6 80//6 78//6
f 82//1 84//1 81//1
f 85//10 86//10 87//10
f 89//9 65//9 88//9
f 83//5 91//5 84//5
f 74//15 93//15 72//15
f 95//16 97//16 94//16
f 84//17 94//17 81//17
f 78//18 99//19 75//19
f 91//20 95//20 84//20
f 72//21 101//21 69//21
f 80//22 98//22 78//22
f 65//23 104//24 88//24
f 68//25 103//25 65//25
f 106//26 108//26 109//26
f 98//27 111//27 99//27
f 93//28 113//28 101//28
f 100//29 96//29 95//29
f 102//30 110//30 98//30
f 92//31 112//31 93//31
f 105//32 106//32 103//32
f 103//33 117//33 104//33
f 106//34 118//34 117//34
f 96//35 120//35 97//35
f 110//36 122//36 111//36
f 112//37 124//37 113//37
f 96//38 125//38 119//38
f 115//39 121//39 110//39
f 112//40 127//40 123//40
f 129//8 131//8 128//8
f 83//10 133//10 90//10
f 134//10 135//10 136//10
f 77//10 128//10 79//10
f 137//10 133//10 138//10
f 66//10 135//10 67//10
f 71//10 86//10 73//10
f 141//10 128//10 142//10
f 143//10 17//10 16//10
f 140//5 146//5 86//5
f 139//6 148//6 135//6
f 133//3 149//3 138//3
f 128//4 150//4 142//4
f 86//9 151//9 87//9
f 135//1 152//1 136//1
f 132//7 143//7 133//7
f 131//10 20//10 2//10
f 146//10 22//10 10//10
f 148//10 24//10 14//10
f 149//10 16//10 25//10
f 150//10 2//10 1//10
f 151//10 10//10 9//10
f 152//10 14//10 13//10
f 153//10 22//10 145//10
f 152//10 55//10 153//10
f 154//1 145//1 140//1
f 136//1 153//1 154//1
f 70//10 140//10 71//10
f 70//10 136//10 154//10
f 107//37 156//37 108//37
f 105//28 155//28 107//28
f 68//21 157//21 105//21
f 158//21 101//21 157//21
f 67//4 158//4 68//4
f 134//4 69//4 158//4
f 159//10 20//10 130//10
f 151//10 58//10 159//10
f 160//9 130//9 129//9
f 87//9 159//9 160//9
f 116//36 162//36 127//36
f 92//27 161//27 116//27
f 74//19 163//19 92//19
f 164//19 99//19 163//19
f 76//10 129//10 77//10
f 76//10 87//10 160//10
f 73//3 164//3 74//3
f 85//3 75//3 164//3
f 165//10 17//10 144//10
f 150//10 61//10 165//10
f 166//4 144//4 132//4
f 142//4 165//4 166//4
f 82//10 132//10 83//10
f 82//10 142//10 166//10
f 115//35 168//35 126//35
f 80//17 170//17 102//17
f 169//17 94//17 170//17
f 102//16 167//16 115//16
f 79//1 169//1 80//1
f 141//1 81//1 169//1
f 171//10 24//10 147//10
f 149//10 64//10 171//10
f 172//3 147//3 139//3
f 138//3 171//3 172//3
f 89//10 139//10 66//10
f 89//10 138//10 172//10
f 114//34 174//34 125//34
f 100//33 173//33 114//33
f 91//24 175//24 100//24
f 176//24 104//24 175//24
f 90//9 176//9 91//9
f 137//9 88//9 176//9
f 66//8 67//8 68//8
f 70//4 71//4 72//4
f 71//7 73//7 74//7
f 76//3 77//3 78//3
f 77//6 79//6 80//6
f 82//1 83//1 84//1
f 85//10 73//10 86//10
f 89//9 66//9 65//9
f 83//5 90//5 91//5
f 74//15 92//15 93//15
f 95//16 96//16 97//16
f 84//17 95//41 94//17
f 78//18 98//18 99//19
f 91//20 100//20 95//20
f 72//21 93//42 101//21
f 80//22 102//22 98//22
f 65//23 103//23 104//24
f 68//25 105//25 103//25
f 106//26 107//26 108//26
f 98//27 110//27 111//27
f 93//28 112//28 113//28
f 100//29 114//29 96//29
f 102//30 115//30 110//30
f 92//31 116//31 112//31
f 105//32 107//32 106//32
f 103//33 106//33 117//33
f 106//34 109//34 118//34
f 96//35 119//35 120//35
f 110//36 121//36 122//36
f 112//37 123//37 124//37
f 96//38 114//38 125//38
f 115//39 126//39 121//39
f 112//40 116//40 127//40
f 129//8 130//8 131//8
f 83//10 132//10 133//10
f 134//10 67//10 135//10
f 77//10 129//10 128//10
f 137//10 90//10 133//10
f 66//10 139//10 135//10
f 71//10 140//10 86//10
f 141//10 79//10 128//10
f 143//10 144//10 17//10
f 140//5 145//5 146//5
f 139//6 147//6 148//6
f 133//3 143//3 149//3
f 128//4 131//4 150//4
f 86//9 146//9 151//9
f 135//1 148//1 152//1
f 132//7 144//7 143//7
f 131//10 130//10 20//10
f 146//10 145//10 22//10
f 148//10 147//10 24//10
f 149//10 143//10 16//10
f 150//10 131//10 2//10
f 151//10 146//10 10//10
f 152//10 148//10 14//10
f 153//10 55//10 22//10
f 152//10 13//10 55//10
f 154//1 153//1 145//1
f 136//1 152//1 153//1
f 70//10 154//10 140//10
f 70//10 134//10 136//10
f 107//37 155//37 156//37
f 105//28 157//43 155//28
f 68//21 158//21 157//21
f 158//21 69//21 101//21
f 67//4 134//4 158//4
f 134//4 70//4 69//4
f 159//10 58//10 20//10
f 151//10 9//10 58//10
f 160//9 159//9 130//9
f 87//9 151//9 159//9
f 116//36 161//36 162//36
f 92//27 163//44 161//27
f 74//19 164//19 163//19
f 164//19 75//19 99//19
f 76//10 160//10 129//10
f 76//10 85//10 87//10
f 73//3 85//3 164//3
f 85//3 76//3 75//3
f 165//10 61//10 17//10
f 150//10 1//10 61//10
f 166//4 165//4 144//4
f 142//4 150//4 165//4
f 82//10 166//10 132//10
f 82//10 141//10 142//10
f 115//35 167//35 168//35
f 80//17 169//17 170//17
f 169//17 81//17 94//17
f 102//16 170//16 167//16
f 79//1 141//1 169//1
f 141//1 82//1 81//1
f 171//10 64//10 24//10
f 149//10 25//10 64//10
f 172//3 171//3 147//3
f 138//3 149//3 171//3
f 89//10 172//10 139//10
f 89//10 137//10 138//10
f 114//34 173//34 174//34
f 100//33 175//45 173//33
f 91//24 176//24 175//24
f 176//24 88//24 104//24
f 90//9 137//9 176//9
f 137//9 89//9 88//9
usemtl Gold
f 174//46 177//47 178//46
f 162//48 179//49 180//48
f 94//50 181//50 182//50
f 101//51 183//51 184//51
f 127//52 180//52 185//52
f 170//53 187//54 167//54
f 157//55 189//56 155//56
f 109//57 191//57 118//57
f 124//51 183//51 113//51
f 125//57 178//57 193//57
f 119//58 193//58 194//58
f 156//59 189//56 195//59
f 119//60 196//60 120//60
f 99//61 198//61 163//61
f 120//50 181//50 97//50
f 121//62 199//62 200//62
f 168//63 187//54 201//63
f 121//52 202//52 122//52
f 104//64 204//64 175//64
f 123//65 185//65 205//65
f 108//66 195//66 206//66
f 123//66 192//66 124//66
f 126//60 201//60 199//60
f 109//67 206//67 190//67
f 101//68 188//68 157//68
f 193//69 208//69 194//69
f 222//2 212//2 219//2
f 200//70 218//70 217//70
f 185//71 213//71 205//71
f 206//72 209//72 190//72
f 191//73 209//73 222//73
f 196//74 208//74 220//74
f 202//75 217//75 216//75
f 192//76 213//76 212//76
f 195//76 210//76 206//76
f 192//76 211//76 195//76
f 183//77 195//77 189//77
f 188//28 183//28 189//28
f 180//75 214//75 185//75
f 202//75 215//75 180//75
f 223//78 180//78 179//78
f 198//27 223//27 179//27
f 201//74 218//74 199//74
f 201//74 220//74 219//74
f 181//79 201//79 187//79
f 186//16 181//16 187//16
f 178//73 207//73 193//73
f 191//73 221//73 178//73
f 177//80 191//80 178//80
f 204//33 224//33 177//33
f 122//81 223//81 111//81
f 118//82 224//82 117//82
f 94//83 186//83 170//83
f 163//84 179//49 161//49
f 175//85 177//47 173//47
f 99//81 223//81 197//81
f 104//82 224//82 203//82
f 174//46 173//47 177//47
f 162//48 161//49 179//49
f 94//50 97//50 181//50
f 101//51 113//51 183//51
f 127//52 162//52 180//52
f 170//53 186//53 187//54
f 157//55 188//55 189//56
f 109//57 190//57 191//57
f 124//51 192//51 183//51
f 125//57 174//57 178//57
f 119//58 125//58 193//58
f 156//59 155//56 189//56
f 119//60 194//60 196//60
f 99//61 197//61 198//61
f 120//50 196//50 181//50
f 121//62 126//62 199//62
f 168//63 167//54 187//54
f 121//52 200//52 202//52
f 104//64 203//64 204//64
f 123//65 127//65 185//65
f 108//66 156//66 195//66
f 123//66 205//66 192//66
f 126//60 168//60 201//60
f 109//67 108//67 206//67
f 101//68 184//68 188//68
f 193//69 207//69 208//69
f 222//2 209//2 210//2
f 210//2 211//2 222//2
f 211//2 212//2 222//2
f 212//2 213//2 214//2
f 214//2 215//2 212//2
f 215//2 216//2 212//2
f 216//2 217//2 218//2
f 219//2 220//2 221//2
f 220//2 208//2 207//2
f 216//2 218//2 219//2
f 207//2 221//2 220//2
f 221//2 222//2 219//2
f 212//2 216//2 219//2
f 200//70 199//70 218//70
f 185//71 214//71 213//71
f 206//72 210//72 209//72
f 191//73 190//73 209//73
f 196//74 194//74 208//74
f 202//75 200//75 217//75
f 192//76 205//76 213//76
f 195//76 211//76 210//76
f 192//76 212//76 211//76
f 183//77 192//77 195//77
f 188//28 184//28 183//28
f 180//75 215//75 214//75
f 202//75 216//75 215//75
f 223//78 202//78 180//78
f 198//27 197//27 223//27
f 201//74 219//74 218//74
f 201//74 196//74 220//74
f 181//79 196//79 201//79
f 186//16 182//16 181//16
f 178//73 221//73 207//73
f 191//73 222//73 221//73
f 177//80 224//80 191//80
f 204//33 203//33 224//33
f 122//81 202//81 223//81
f 118//82 191//82 224//82
f 94//83 182//83 186//83
f 163//84 198//84 179//49
f 175//85 204//85 177//47
f 99//81 111//81 223//81
f 104//82 117//82 224//82
